<svg width="394" height="207" viewBox="0 0 394 207" fill="none" xmlns="http://www.w3.org/2000/svg">
<path d="M154.4 106.4C154.4 135.6 147.3 159.6 133.1 178.4C118.9 197.2 100.9 206.6 79.1 206.6C57.3 206.6 38.7 196.7 23.3 176.9C7.9 157.1 0.2 133.2 0.2 105.2C0.2 67.8 11.9 39 35.3 18.8C47.5 8.19999 62 2.89998 78.8 2.89998C94 2.89998 106.9 6.99998 117.5 15.2C128.7 24 137.6 36.6 144.2 53C151 69.4 154.4 87.2 154.4 106.4ZM104.9 101.3C104.9 59.1 101.8 31.7 95.6 19.1C92 11.9 86.2 8.29999 78.2 8.29999C68 8.29999 60.8 15.3 56.6 29.3C52 44.7 49.7 67.3 49.7 97.1C49.7 144.5 54.1 175.5 62.9 190.1C67.3 197.5 72.8 201.2 79.4 201.2C89.4 201.2 96.1 194.1 99.5 179.9C103.1 164.9 104.9 138.7 104.9 101.3ZM301.257 200.9C301.257 202.5 298.657 203.3 293.457 203.3H286.257C283.457 202.9 272.457 202.8 253.257 203L215.757 203.3C213.357 203.3 210.557 203.4 207.357 203.6C204.557 203.6 202.957 203.6 202.557 203.6C197.557 203.6 195.057 202.7 195.057 200.9C195.057 199.7 195.557 199 196.557 198.8C197.557 198.6 201.457 198.5 208.257 198.5C217.057 198.3 222.457 197.2 224.457 195.2C225.657 193.4 226.257 190.7 226.257 187.1V75.5C226.257 51.7 226.057 38.8 225.657 36.8C225.057 33.6 222.257 32 217.257 32L201.957 32.3C196.757 32.5 194.157 31.7 194.157 29.9C194.157 28.7 197.457 27.8 204.057 27.2C221.057 25.8 235.557 21.6 247.557 14.6C248.157 14.2 251.757 11.9 258.357 7.69999L269.757 0.799993L270.957 5.29999C270.957 5.89999 270.857 7.5 270.657 10.1V155.6C270.657 173.8 270.857 184.1 271.257 186.5C271.457 194.5 275.357 198.4 282.957 198.2C295.157 197.8 301.257 198.7 301.257 200.9ZM393.514 184.4C393.514 190.6 391.514 195.7 387.514 199.7C383.514 203.7 378.414 205.7 372.214 205.7C366.014 205.7 360.814 203.7 356.614 199.7C352.414 195.5 350.314 190.4 350.314 184.4C350.314 178.2 352.414 173 356.614 168.8C360.814 164.6 366.014 162.5 372.214 162.5C378.014 162.5 383.014 164.6 387.214 168.8C391.414 173 393.514 178.2 393.514 184.4Z" fill="#D1D1D1" fill-opacity="0.71"/>
</svg>
