<svg width="105" height="114" viewBox="0 0 105 114" fill="none" xmlns="http://www.w3.org/2000/svg">
<path d="M4 28.074V26L8.91001 25.018C12.1012 24.3798 15.4033 25.3343 17.7618 27.5768L44.5 53L9.84506 37.17C6.28426 35.5434 4 31.9887 4 28.074Z" fill="#D1D1D1"/>
<path d="M102.943 70.8812L103.537 72.8683L99.1145 75.2158C96.2399 76.7415 92.8027 76.7729 89.9007 75.3001L56.9999 58.6025L94.7373 63.841C98.6149 64.3793 101.822 67.1306 102.943 70.8812Z" fill="#D1D1D1"/>
<path d="M94.3562 22.5901L96.3032 23.3048L95.5329 28.2525C95.0323 31.4681 92.9982 34.239 90.0804 35.6802L56.9999 52.019L83.8031 24.9424C86.5572 22.1603 90.6813 21.241 94.3562 22.5901Z" fill="#D1D1D1"/>
<path d="M3.33229 78.4703L1.63588 77.2771L3.65742 72.6961C4.97128 69.7187 7.65179 67.5669 10.8428 66.928L47.0201 59.6839L14.1349 78.9224C10.756 80.8991 6.53427 80.7225 3.33229 78.4703Z" fill="#D1D1D1"/>
<path d="M45.8699 112.249L43.9918 113.129L41.0196 109.099C39.0879 106.48 38.5515 103.085 39.5817 99.998L51.2612 65L51.6273 103.098C51.6649 107.012 49.4149 110.589 45.8699 112.249Z" fill="#D1D1D1"/>
<path d="M36.5835 3.04154L37.9633 1.49315L42.2823 4.02665C45.0894 5.67326 46.9196 8.58284 47.1885 11.8261L50.2364 48.5954L34.8957 13.7211C33.3194 10.1377 33.979 5.96416 36.5835 3.04154Z" fill="#D1D1D1"/>
</svg>
